<?xml version="1.0" encoding="utf-8"?>
<!-- Generator: Adobe Illustrator 16.0.0, SVG Export Plug-In . SVG Version: 6.00 Build 0)  -->
<!DOCTYPE svg PUBLIC "-//W3C//DTD SVG 1.1//EN" "http://www.w3.org/Graphics/SVG/1.1/DTD/svg11.dtd">
<svg version="1.1" id="Layer_1" xmlns="http://www.w3.org/2000/svg" xmlns:xlink="http://www.w3.org/1999/xlink" x="0px" y="0px"
	 width="612px" height="792px" viewBox="0 0 612 792" enable-background="new 0 0 612 792" xml:space="preserve">
<path fill="#FFFFFF" d="M522.352,90H89.648C40.22,90,0,130.22,0,179.648v432.703C0,661.779,40.22,702,89.648,702h432.703
	C571.779,702,612,661.779,612,612.352V179.648C612,130.22,571.779,90,522.352,90z M307.195,556.172
	c-88.981,0-161.367-72.387-161.367-161.367c0-88.981,72.386-161.367,161.367-161.367c88.98,0,161.367,72.386,161.367,161.367
	C468.562,483.785,396.176,556.172,307.195,556.172z M486.492,269.297c-29.658,0-53.789-24.13-53.789-53.789
	s24.131-53.789,53.789-53.789s53.789,24.13,53.789,53.789S516.15,269.297,486.492,269.297z"/>
<path fill="#FFFFFF" d="M486.492,197.578c-9.894,0-17.93,8.036-17.93,17.93s8.036,17.93,17.93,17.93s17.93-8.036,17.93-17.93
	S496.386,197.578,486.492,197.578z"/>
<path fill="#FFFFFF" d="M307.195,269.297c-69.197,0-125.508,56.311-125.508,125.508s56.311,125.508,125.508,125.508
	s125.508-56.311,125.508-125.508S376.393,269.297,307.195,269.297z"/>
</svg>
