<?xml version="1.0" encoding="utf-8"?>
<!-- Generator: Adobe Illustrator 16.0.0, SVG Export Plug-In . SVG Version: 6.00 Build 0)  -->
<!DOCTYPE svg PUBLIC "-//W3C//DTD SVG 1.1//EN" "http://www.w3.org/Graphics/SVG/1.1/DTD/svg11.dtd">
<svg version="1.1" id="Layer_1" xmlns="http://www.w3.org/2000/svg" xmlns:xlink="http://www.w3.org/1999/xlink" x="0px" y="0px"
	 width="612px" height="792px" viewBox="0 0 612 792" enable-background="new 0 0 612 792" xml:space="preserve">
<path fill="#FFFFFF" d="M228.318,600.066c-26.465,0-53.705-2.144-81.108-6.439c-48.265-7.573-97.123-32.819-110.949-40.379
	L0,533.423l39.258-12.91c42.915-14.11,69.02-22.865,101.335-36.573c-32.357-15.67-57.295-43.857-69.3-80.296l-9.133-27.726
	l7.489,1.144c-7.102-7.158-12.709-14.423-17.056-21.03c-15.46-23.481-23.645-52.173-21.903-76.761l1.718-24.2l14.488,5.612
	c-6.112-11.542-10.529-23.869-13.125-36.789c-6.327-31.507-1.032-64.98,14.914-94.251l12.621-23.168l16.879,20.273
	c53.383,64.126,120.997,102.166,201.246,113.302c-3.278-22.594-0.822-44.399,7.307-63.944c9.465-22.758,26.302-42.056,48.677-55.811
	c24.849-15.273,54.983-22.674,84.853-20.839c31.689,1.947,60.461,13.821,83.312,34.36c11.159-2.899,19.382-5.995,30.495-10.179
	c6.686-2.517,14.269-5.374,23.756-8.643l34.963-12.046l-22.799,65.116c1.503-0.126,3.053-0.233,4.674-0.303l37.334-1.69
	l-22.066,30.158c-1.266,1.728-1.587,2.218-2.035,2.895c-1.779,2.68-3.992,6.014-34.281,46.458
	c-7.583,10.127-11.369,23.318-10.664,37.148c2.685,52.556-3.764,100.107-19.177,141.326c-14.577,38.997-37.167,72.456-67.134,99.449
	c-37.082,33.394-84.367,56.259-140.546,67.95C288.541,597.189,258.948,600.066,228.318,600.066z"/>
</svg>
